<svg width="1920" height="1024" viewBox="0 0 1920 1024" fill="none" xmlns="http://www.w3.org/2000/svg">
<g clip-path="url(#clip0_1507_448)">
<path d="M1748.98 190.052L1584.12 195.431L1833.73 -153L1940.2 -76.6743L1748.98 190.052Z" fill="#CCCCCC" fill-opacity="0.45"/>
<path d="M905.857 776.128L1070.46 786.882L788.002 1109.26L689.501 1022.9L905.857 776.128Z" fill="#3650AE" fill-opacity="0.69"/>
<path d="M930.115 856.544L1094.72 867.297L812.26 1189.68L713.758 1103.31L930.115 856.544Z" fill="#CCCCCC" fill-opacity="0.45"/>
<rect width="1769.45" height="958.805" transform="matrix(0.627624 -0.778517 0.877387 0.479783 -413.79 843.982)" fill="url(#paint0_linear_1507_448)"/>
<rect width="1769.45" height="958.805" transform="matrix(0.627624 -0.778517 0.877387 0.479783 -413.79 796.28)" fill="url(#paint1_linear_1507_448)"/>
<rect width="1769.45" height="1106.61" transform="matrix(0.627624 -0.778517 0.877387 0.479783 -594 737.544)" fill="url(#paint2_linear_1507_448)"/>
<rect opacity="0.88" x="1147" y="1151.84" width="1629.2" height="819.408" transform="rotate(-56.3269 1147 1151.84)" fill="#6988EB" fill-opacity="0.54"/>
</g>
<defs>
<linearGradient id="paint0_linear_1507_448" x1="2231.32" y1="351.481" x2="-0.664904" y2="466.499" gradientUnits="userSpaceOnUse">
<stop offset="0.145889" stop-color="#1770C1"/>
<stop offset="0.578992" stop-color="#00AEEF"/>
<stop offset="1" stop-color="#2E3192"/>
</linearGradient>
<linearGradient id="paint1_linear_1507_448" x1="2600.18" y1="430.414" x2="-0.0859754" y2="474.306" gradientUnits="userSpaceOnUse">
<stop offset="0.418628" stop-color="#00AEEF"/>
<stop offset="0.94126" stop-color="#2E3192"/>
</linearGradient>
<linearGradient id="paint2_linear_1507_448" x1="1769.45" y1="553.306" x2="0" y2="553.306" gradientUnits="userSpaceOnUse">
<stop stop-color="#00AEEF"/>
<stop offset="0.69007" stop-color="#2E3192"/>
</linearGradient>
<clipPath id="clip0_1507_448">
<rect width="1920" height="1024" fill="white"/>
</clipPath>
</defs>
</svg>
